<svg width="16" height="9" viewBox="0 0 16 9" fill="none" xmlns="http://www.w3.org/2000/svg">
<path d="M7.87488 8.99998C7.68654 8.99998 7.50385 8.96563 7.32681 8.89692C7.14977 8.82822 7.00286 8.73662 6.88609 8.62212L0.38833 2.30152C0.129362 2.04961 -0.00012207 1.729 -0.00012207 1.33969C-0.00012207 0.950379 0.129362 0.629769 0.38833 0.377861C0.647299 0.125953 0.976896 0 1.37712 0C1.77734 0 2.10694 0.125953 2.36591 0.377861L7.87488 5.73663L13.3838 0.377861C13.6428 0.125953 13.9724 0 14.3726 0C14.7729 0 15.1025 0.125953 15.3614 0.377861C15.6204 0.629769 15.7499 0.950379 15.7499 1.33969C15.7499 1.729 15.6204 2.04961 15.3614 2.30152L8.86367 8.62212C8.72241 8.75952 8.56938 8.85708 8.40459 8.91479C8.23979 8.9725 8.06322 9.0009 7.87488 8.99998Z" fill="white"/>
</svg>
